<svg xmlns="http://www.w3.org/2000/svg" xmlns:xlink="http://www.w3.org/1999/xlink" id="Capa_1" data-name="Capa 1" viewBox="0 0 16.56 17.78"><defs><style>.cls-1{fill:url(#Degradado_sin_nombre_2)}.cls-2{fill:url(#Degradado_sin_nombre_2-2)}</style><linearGradient id="Degradado_sin_nombre_2" x1="-747.31" x2="-747.24" y1="-439.51" y2="-439.35" gradientTransform="translate(80033.12 22894.07) scale(107.09 52.08)" gradientUnits="userSpaceOnUse"><stop offset="0" stop-color="#1b3a95"/><stop offset=".49" stop-color="#1b89b8"/><stop offset="1" stop-color="#30a671"/></linearGradient><linearGradient id="Degradado_sin_nombre_2-2" x1="-787.57" x2="-787.5" y1="-424.17" y2="-424.08" gradientTransform="translate(11014.37 5928.7) scale(13.97)" xlink:href="#Degradado_sin_nombre_2"/></defs><title>ar icon</title><g id="phone"><path d="M8.78,0H1.94A1.94,1.94,0,0,0,0,1.94v13.9a1.94,1.94,0,0,0,1.94,1.94H8.78a1.93,1.93,0,0,0,1.94-1.94V1.94A1.94,1.94,0,0,0,8.78,0ZM.41,1.94A1.53,1.53,0,0,1,1.94.41H8.78a1.54,1.54,0,0,1,1.54,1.53v.62H.41Zm0,1h9.91V14.59H.41Zm9.91,12.87a1.54,1.54,0,0,1-1.54,1.54H1.94A1.54,1.54,0,0,1,.41,15.84v-.69h9.91Z"/><path d="M4.2,15.84H6.53a.2.2,0,0,1,.19.19v.42a.2.2,0,0,1-.19.2H4.2a.2.2,0,0,1-.19-.2V16A.2.2,0,0,1,4.2,15.84Z"/><path d="M4.84,1.3h1A.13.13,0,0,1,6,1.43v.29a.14.14,0,0,1-.13.13h-1a.14.14,0,0,1-.13-.13V1.43A.14.14,0,0,1,4.84,1.3Z"/></g><g id="montañas"><path d="M11.5,9.25,7.6,4.49,2.32,11.31H16.37L11.92,5.46l-1.9,2" class="cls-1"/><path d="M16.36,11.52h-14a.21.21,0,0,1-.19-.12.18.18,0,0,1,0-.21L7.45,4.36a.17.17,0,0,1,.15-.08.17.17,0,0,1,.16.08L10,7.12l1.76-1.81a.23.23,0,0,1,.16-.06.18.18,0,0,1,.14.08l4.44,5.86a.2.2,0,0,1,0,.21A.19.19,0,0,1,16.36,11.52ZM2.72,11.11H16l-4-5.35L10.28,7.44l1.38,1.69a.22.22,0,0,1,0,.29.23.23,0,0,1-.29,0L7.6,4.8Z"/></g><g id="circulo"><circle cx="14.1" cy="4.55" r=".83" class="cls-2"/><path d="M14.1,5.58a1,1,0,0,1-1-1,1,1,0,1,1,1,1Zm0-1.67a.65.65,0,1,0,.64.64.64.64,0,0,0-.64-.64Z"/></g></svg>