<svg xmlns="http://www.w3.org/2000/svg" xmlns:xlink="http://www.w3.org/1999/xlink" id="Capa_1" data-name="Capa 1" viewBox="0 0 17.87 17.36"><defs><style>.cls-1{fill:url(#Degradado_sin_nombre_95)}</style><linearGradient id="Degradado_sin_nombre_95" x1="2.42" x2="14.7" y1="11.28" y2="11.28" gradientUnits="userSpaceOnUse"><stop offset="0" stop-color="#17288a"/><stop offset=".49" stop-color="#106a93"/><stop offset="1" stop-color="#30a671"/></linearGradient></defs><title>dg icon</title><polygon points="2.42 17.36 8.91 5.19 14.7 17.36 8.84 15.56 2.42 17.36" class="cls-1"/><path d="M2.63,2.82H.26A.25.25,0,0,1,0,2.57V.25A.25.25,0,0,1,.26,0H2.63a.26.26,0,0,1,.26.25V2.57A.26.26,0,0,1,2.63,2.82ZM.51,2.32H2.38V.5H.51Z"/><path d="M17.61,2.82H15.24A.26.26,0,0,1,15,2.57V.25A.26.26,0,0,1,15.24,0h2.37a.26.26,0,0,1,.26.25V2.57A.26.26,0,0,1,17.61,2.82Zm-2.12-.5h1.87V.5H15.49Z"/><rect width="5.31" height=".5" x="10.09" y="1.12"/><rect width="5.11" height=".5" x="2.61" y="1.12"/><path d="M8.91,2.8A1.4,1.4,0,0,1,7.49,1.42a1.42,1.42,0,0,1,2.84,0A1.4,1.4,0,0,1,8.91,2.8Zm0-2.27A.9.9,0,0,0,8,1.42a.91.91,0,0,0,1.82,0A.9.9,0,0,0,8.91.53Z"/><path d="M3.53,7.91A1.19,1.19,0,1,1,4.74,6.72,1.21,1.21,0,0,1,3.53,7.91ZM3.53,6a.69.69,0,0,0-.7.68A.7.7,0,1,0,3.53,6Z"/><path d="M14.31,7.91a1.19,1.19,0,1,1,1.22-1.19A1.2,1.2,0,0,1,14.31,7.91Zm0-1.87a.69.69,0,0,0-.7.68.71.71,0,1,0,.7-.68Z"/><path d="M14.62,5.89h-.51a4.59,4.59,0,0,0-4-4.22l.09-.49A5.08,5.08,0,0,1,14.62,5.89Z"/><path d="M3.8,5.89H3.29a5,5,0,0,1,4.42-4.7l.09.49A4.54,4.54,0,0,0,3.8,5.89Z"/><path d="M2.74,17.3a.25.25,0,0,1-.2-.09.24.24,0,0,1,0-.28L8.66,5.39a.28.28,0,0,1,.23-.13h0a.23.23,0,0,1,.22.14l5.39,11.5a.23.23,0,0,1,0,.27.23.23,0,0,1-.26.07L8.82,15.6l-6,1.69ZM8.88,6.08,3.24,16.65,8.75,15.1H8.9l4.91,1.5Z"/></svg>