<svg class="service-icon threeD-modeling" alt="Modelados 3D" data-name="Capa 1"
	xmlns="http://www.w3.org/2000/svg"
	xmlns:xlink="http://www.w3.org/1999/xlink" viewBox="0 0 18.79 17.25" id="3d">
	<defs>
		<style>
			.cls-1 {
				fill: url(#Degradado_sin_nombre_2);
			}
		</style>
		<linearGradient id="Degradado_sin_nombre_2" x1="-667.25" y1="-422.12" x2="-667.14" y2="-422.12" gradientTransform="translate(53466.55 33084.41) scale(80.13 78.35)" gradientUnits="userSpaceOnUse">
			<stop offset="0" stop-color="#1b3a95"></stop>
			<stop offset="0.49" stop-color="#1b89b8"></stop>
			<stop offset="1" stop-color="#30a671"></stop>
		</linearGradient>
	</defs>
	<title>3d icon</title>
	<g id="cubo">
		<path d="M9.82,1a.16.16,0,0,0-.15.16v.66A.16.16,0,0,0,9.82,2,.16.16,0,0,0,10,1.85V1.19A.16.16,0,0,0,9.82,1Zm0,1.32a.15.15,0,0,0-.15.15v.67a.15.15,0,0,0,.15.16A.16.16,0,0,0,10,3.17V2.5C10,2.43,9.91,2.35,9.82,2.35ZM9.82,5a.15.15,0,0,0-.15.15v.67A.14.14,0,0,0,9.82,6,.17.17,0,0,0,10,5.8V5.14C10,5.06,9.91,5,9.82,5Z">
		</path>
		<path d="M10.29,7a.16.16,0,0,1-.16.11.06.06,0,0,1-.05,0L9.85,7l-.21.13a.24.24,0,0,1-.09,0,.17.17,0,0,1-.13-.08.15.15,0,0,1,.05-.22l.2-.13V6.47a.16.16,0,0,1,.15-.16.17.17,0,0,1,.17.16v.21l.2.06A.18.18,0,0,1,10.29,7Z">
		</path>
		<path d="M6.12,9.24A.18.18,0,0,1,6,9.17.16.16,0,0,1,6,9l.57-.36a.15.15,0,0,1,.22.06h0a.16.16,0,0,1,0,.22l-.57.35Zm1.14-.7a.19.19,0,0,1-.14-.08.17.17,0,0,1,.06-.22l.58-.35A.15.15,0,0,1,8,7.94H8a.15.15,0,0,1-.05.22l-.58.35a.14.14,0,0,1-.09,0Zm1.15-.7a.19.19,0,0,1-.14-.08.15.15,0,0,1,.05-.22l.57-.36a.15.15,0,0,1,.22.06h0a.15.15,0,0,1,0,.22l-.57.35s-.05,0-.08,0Z">
		</path>
		<path d="M16.42,1.93h0L9.82,0,5,3.09V9.86l7.24,2,4.21-2.92v-7ZM9.71.64a.13.13,0,0,0,.12,0A.15.15,0,0,0,10,.55l5.94,1.73L12.2,5,10,4.41V3.83a.16.16,0,0,0-.16-.15.15.15,0,0,0-.15.15v.49l-4-1.09Zm-4,8.71h0a.16.16,0,0,0-.23,0h0V3.68L12,5.46l0,1.88a.2.2,0,0,0-.13.11.17.17,0,0,0,.11.2l0,0-.05,3.61L5.67,9.54A.19.19,0,0,0,5.69,9.35ZM16,8.68l-.25.17-3.27,2.27,0-3.31.11,0h.06a.16.16,0,0,0,0-.32l-.22-.07,0-2.07L16,2.87Z">
		</path>
		<path d="M16,8.59v.09l-.25.17a.16.16,0,0,1-.1-.2.16.16,0,0,1,.21-.1Z"></path>
		<path d="M11.43,7.14,10.81,7h-.05a.17.17,0,0,0-.16.11.16.16,0,0,0,.1.21l.64.2h0a.18.18,0,0,0,.16-.12A.16.16,0,0,0,11.43,7.14Zm2.51.8-.63-.2a.17.17,0,0,0-.21.11.19.19,0,0,0,.11.21l.62.19.06,0A.18.18,0,0,0,14,8.15.17.17,0,0,0,13.94,7.94Zm1.25.4-.63-.19a.15.15,0,0,0-.21.1.18.18,0,0,0,.11.21l.63.2h.05a.17.17,0,0,0,0-.33Z">
		</path>
	</g>
	<g id="linea">
		<path d="M11.88,14.27a.12.12,0,0,1-.13-.11c0-.07.05-.12.13-.13h0l.54,0a.14.14,0,0,1,.16.11.13.13,0,0,1-.13.13l-.56,0Zm-1.26.1a.14.14,0,0,1-.13-.12c0-.06,0-.12.13-.13h0l.54,0a.13.13,0,0,1,.15.11c0,.07-.05.12-.13.13l-.55,0Zm2.63-.2a.14.14,0,0,1-.13-.11c0-.07,0-.12.12-.13l.53-.06a.15.15,0,0,1,.17.09h0c0,.07,0,.12-.12.14l-.55.08s0,0,0,0ZM14.61,14a.12.12,0,1,1,0-.24h0l.53-.1a.15.15,0,0,1,.17.09c0,.06,0,.12-.09.15l-.54.11Zm1.33-.32a.13.13,0,0,1-.13-.08.12.12,0,0,1,.08-.15l.51-.16a.13.13,0,0,1,.17.06h0a.1.1,0,0,1-.07.15l-.52.17s0,0,0,0Zm1.25-.47a.16.16,0,0,1-.12-.06.11.11,0,0,1,.05-.17,4,4,0,0,0,.46-.24.14.14,0,0,1,.18,0,.1.1,0,0,1,0,.16,5.42,5.42,0,0,1-.48.26s0,0-.07,0Zm1.06-.74-.07,0c-.07-.05-.08-.12,0-.17h0a1.6,1.6,0,0,0,.26-.38.14.14,0,0,1,.18-.06h0a.11.11,0,0,1,.07.16,1.92,1.92,0,0,1-.28.42.14.14,0,0,1-.13,0Zm.41-1.11c-.07,0-.14-.06-.13-.11a1.69,1.69,0,0,0-.12-.44.11.11,0,0,1,.09-.15h0a.13.13,0,0,1,.17.08,1.36,1.36,0,0,1,.12.5.12.12,0,0,1-.12.13Zm-.54-1.1s-.07,0-.11-.05a2.26,2.26,0,0,0-.35-.34.12.12,0,0,1,0-.18h0a.16.16,0,0,1,.2,0,3.41,3.41,0,0,1,.38.38.1.1,0,0,1,0,.16h0a.12.12,0,0,1-.09,0Z">
		</path>
	</g>
	<g id="flecha">
		<path class="cls-1" d="M4.47,8.35v1S2,10.07,2.06,11s1.29,2.09,3.83,2.14V11.42l3.22,2.8L5.89,17V15.53s-6-.4-5.66-3.93C.23,11.6.22,9.38,4.47,8.35Z">
		</path>
		<path d="M5.89,17.25l-.09,0A.21.21,0,0,1,5.68,17V15.72c-.78-.08-3.67-.46-5-2A2.7,2.7,0,0,1,0,11.59c0-.08,0-2.38,4.4-3.44a.27.27,0,0,1,.18,0,.23.23,0,0,1,.08.17v1a.21.21,0,0,1-.16.2c-.87.26-2.27.87-2.26,1.44,0,.88,1.22,1.84,3.42,1.93V11.42a.22.22,0,0,1,.12-.19.2.2,0,0,1,.22,0l3.21,2.79a.22.22,0,0,1,0,.32L6,17.19A.18.18,0,0,1,5.89,17.25ZM4.27,8.62c-3.77,1-3.83,3-3.83,3A2.32,2.32,0,0,0,1,13.43c1.39,1.64,4.88,1.9,4.91,1.9a.21.21,0,0,1,.19.21V16.6l2.7-2.37L6.1,11.87v1.28A.17.17,0,0,1,6,13.3a.22.22,0,0,1-.14,0c-2.61,0-4-1.21-4-2.33,0-1,1.82-1.63,2.41-1.81Z">
		</path>
	</g>
</svg>