<svg xmlns="http://www.w3.org/2000/svg" xmlns:xlink="http://www.w3.org/1999/xlink" id="Capa_1" data-name="Capa 1" viewBox="0 0 24.82 14.29"><defs><style>.cls-1{fill:url(#Degradado_sin_nombre_2)}</style><linearGradient id="Degradado_sin_nombre_2" x1="-823.87" x2="-823.72" y1="-219.2" y2="-219.2" gradientTransform="translate(31104.73 9446.31) scale(37.74 43.06)" gradientUnits="userSpaceOnUse"><stop offset="0" stop-color="#1b3a95"/><stop offset=".49" stop-color="#1b89b8"/><stop offset="1" stop-color="#30a671"/></linearGradient></defs><title>multimedia icon</title><path d="M15.84,6.51,11,3.7a.49.49,0,0,0-.66.17.48.48,0,0,0-.06.24V9.74a.49.49,0,0,0,.48.48.57.57,0,0,0,.24-.06l4.88-2.82a.51.51,0,0,0,.08-.7A.26.26,0,0,1,15.84,6.51Z" class="cls-1"/><path d="M10.86,10.19a.77.77,0,0,1-.41-.11A.8.8,0,0,1,10,9.37v-5a.82.82,0,0,1,1.24-.71l4.36,2.58a.82.82,0,0,1,.41.72.8.8,0,0,1-.42.7l-4.37,2.46A.79.79,0,0,1,10.86,10.19Zm0-6.23a.41.41,0,0,0-.18,0,.37.37,0,0,0-.19.33v5a.39.39,0,0,0,.18.33.42.42,0,0,0,.38,0l4.36-2.46a.35.35,0,0,0,.19-.32.38.38,0,0,0-.18-.32L11.05,4A.33.33,0,0,0,10.86,4Z"/><path d="M24.82,14.29H22.76V12.54H21.1v1.75H3.72V12.54H2.06v1.75H0V0H2.06V1.81H3.72V0H21.1V1.81h1.66V0h2.06Zm-1.62-.45h1.17V.45H23.2v1.8H20.65V.45H4.17v1.8H1.62V.45H.45V13.84H1.62V12.1H4.17v1.74H20.65V12.1H23.2Zm0-2.88H20.65V7.71H23.2Zm-2.1-.44h1.66V8.16H21.1ZM4.17,11H1.62V7.71H4.17Zm-2.11-.44H3.72V8.16H2.06ZM23.2,6.58H20.65V3.39H23.2Zm-2.1-.45h1.66V3.83H21.1ZM4.17,6.58H1.62V3.39H4.17ZM2.06,6.13H3.72V3.83H2.06Z"/></svg>