<svg xmlns="http://www.w3.org/2000/svg" xmlns:xlink="http://www.w3.org/1999/xlink" id="Capa_1" data-name="Capa 1" viewBox="0 0 19.23 17.97"><defs><style>.cls-1{fill:url(#Degradado_sin_nombre_3)}.cls-2{fill:url(#Degradado_sin_nombre_3-2)}.cls-3{fill:url(#Degradado_sin_nombre_3-3)}</style><linearGradient id="Degradado_sin_nombre_3" x1="-859.93" x2="-859.79" y1="-700.25" y2="-700.25" gradientTransform="translate(25482.05 20057.13) scale(29.62 28.64)" gradientUnits="userSpaceOnUse"><stop offset="0" stop-color="#003aa9"/><stop offset=".49" stop-color="#0089ba"/><stop offset="1" stop-color="#30b477"/></linearGradient><linearGradient id="Degradado_sin_nombre_3-2" x1="-769.12" x2="-768.99" y1="-396.48" y2="-396.48" gradientTransform="translate(82638.92 21876.19) scale(107.45 55.14)" xlink:href="#Degradado_sin_nombre_3"/><linearGradient id="Degradado_sin_nombre_3-3" x1="-865.11" x2="-864.98" y1="-396.55" y2="-396.55" gradientTransform="translate(24813.61 16923.88) scale(28.67 42.65)" xlink:href="#Degradado_sin_nombre_3"/></defs><title>pv360 icon</title><g id="ojo"><path d="M9.61,6.38C7,6.38,4.76,5.06,4.23,3.26V3.12C4.76,1.32,7,0,9.61,0S14.46,1.32,15,3.12l0,.07,0,.07C14.48,5.06,12.2,6.38,9.61,6.38ZM4.68,3.19c.51,1.59,2.57,2.74,4.93,2.74S14,4.77,14.54,3.19C14,1.59,12,.45,9.61.45S5.2,1.59,4.68,3.19Z"/><path d="M9.57,1.27a1.68,1.68,0,0,0-.45.05A.92.92,0,0,1,9.46,2a.92.92,0,0,1-.93.9h0a1,1,0,0,1-.8-.44,1.77,1.77,0,0,0-.13.69,2,2,0,1,0,2-1.91Z" class="cls-1"/><path id="ojo-2" d="M9.57,5.3a2.17,2.17,0,0,1-2.2-2.13,2.2,2.2,0,0,1,.15-.77.26.26,0,0,1,.19-.15.23.23,0,0,1,.21.11.71.71,0,0,0,.61.33A.69.69,0,0,0,9.24,2,.64.64,0,0,0,9,1.49a.19.19,0,0,1-.08-.22.21.21,0,0,1,.17-.17,2.18,2.18,0,0,1,2.7,2.07A2.19,2.19,0,0,1,9.57,5.3ZM7.84,2.92a1.93,1.93,0,0,0,0,.24,1.74,1.74,0,0,0,3.48,0A1.7,1.7,0,0,0,9.58,1.48h0A1,1,0,0,1,9.69,2,1.17,1.17,0,0,1,8.53,3.13,1.13,1.13,0,0,1,7.84,2.92Z" data-name="ojo"/></g><g id="linea"><g id="linea_izquierda" data-name="linea izquierda"><path d="M4.14,3.5A.14.14,0,0,1,4,3.42a.14.14,0,0,1,.06-.2h0L4.47,3a.14.14,0,0,1,.2.07h0a.14.14,0,0,1-.06.2h0a3.58,3.58,0,0,0-.39.21Z"/><path d="M.27,8.48h0A.16.16,0,0,1,.13,8.3h0a7.06,7.06,0,0,1,.21-.79.16.16,0,0,1,.19-.1.14.14,0,0,1,.09.19h0a7.17,7.17,0,0,0-.21.76A.13.13,0,0,1,.27,8.48ZM.81,6.94a.1.1,0,0,1-.07,0,.14.14,0,0,1-.07-.2A5.42,5.42,0,0,1,1.07,6a.14.14,0,0,1,.21,0,.14.14,0,0,1,0,.21,4.64,4.64,0,0,0-.38.69.17.17,0,0,1-.13.07Zm.86-1.37a.13.13,0,0,1-.09,0,.16.16,0,0,1,0-.22h0c.17-.21.36-.42.54-.61a.18.18,0,0,1,.22,0,.18.18,0,0,1,0,.22h0a6,6,0,0,0-.53.59.11.11,0,0,1-.11.06ZM2.81,4.42a.14.14,0,0,1-.09-.26h0c.21-.17.42-.35.65-.51a.16.16,0,0,1,.21,0h0a.15.15,0,0,1,0,.22h0a7.52,7.52,0,0,0-.64.47.1.1,0,0,1-.09,0Z"/><path d="M.15,9.73A.15.15,0,0,1,0,9.57H0c0-.14,0-.3,0-.46A.13.13,0,0,1,.17,9h0a.15.15,0,0,1,.14.16h0v.43A.15.15,0,0,1,.15,9.73Z"/></g><g id="linea_derecha" data-name="linea derecha"><path d="M19.09,9.73a.15.15,0,0,1-.15-.14h0c0-.15,0-.29,0-.44S19,9,19.05,9h0a.15.15,0,0,1,.16.13h0c0,.15,0,.3,0,.46a.13.13,0,0,1-.13.16Z"/><path d="M19,8.48a.16.16,0,0,1-.14-.12,4.87,4.87,0,0,0-.22-.77.16.16,0,0,1,.1-.19.13.13,0,0,1,.18.09,8.19,8.19,0,0,1,.23.81.16.16,0,0,1-.12.18h0S19,8.48,19,8.48Zm-.52-1.54a.16.16,0,0,1-.13-.08c-.12-.24-.25-.47-.38-.7A.16.16,0,0,1,18,6a.17.17,0,0,1,.21,0,7.53,7.53,0,0,1,.41.73.15.15,0,0,1-.07.2s-.06,0-.08,0Zm-.87-1.37a.17.17,0,0,1-.12-.06,7.63,7.63,0,0,0-.53-.59.16.16,0,0,1,0-.22.17.17,0,0,1,.21,0c.2.2.38.4.56.61a.16.16,0,0,1,0,.22l-.09,0ZM16.4,4.41a.11.11,0,0,1-.09,0,6.28,6.28,0,0,0-.64-.48.15.15,0,0,1,0-.21h0a.15.15,0,0,1,.21,0,8.33,8.33,0,0,1,.67.5.16.16,0,0,1,0,.22h0a.29.29,0,0,1-.13,0Z"/><path d="M15.06,3.48H15c-.14-.07-.26-.15-.4-.21a.15.15,0,0,1-.07-.2h0a.14.14,0,0,1,.2-.07l.4.21a.16.16,0,0,1,.05.2C15.16,3.46,15.11,3.48,15.06,3.48Z"/></g></g><g id="flecha"><path d="M.25,10.42s.68,7.65,11.85,5.76v1.57l2.43-3-2.59-2.3v1.79S3,16.12.25,10.42Z" class="cls-2"/><path d="M12.1,18A.13.13,0,0,1,12,18a.21.21,0,0,1-.14-.21v-1.3c-4,.63-7.09.12-9.21-1.53A6.78,6.78,0,0,1,0,10.44a.23.23,0,0,1,.16-.24.22.22,0,0,1,.27.12c2.46,5,10,4,11.27,3.76V12.49a.23.23,0,0,1,.13-.21.2.2,0,0,1,.24,0l2.58,2.3a.23.23,0,0,1,0,.32l-2.42,3A.2.2,0,0,1,12.1,18Zm0-2a.2.2,0,0,1,.15.05.23.23,0,0,1,.08.17v.93l1.89-2.29L12.17,13v1.29a.24.24,0,0,1-.19.23c-.08,0-7.71,1.53-11.13-2.72A6.43,6.43,0,0,0,3,14.58C5,16.17,8.09,16.64,12.06,16Z"/></g><g id="flecha_esquina" data-name="flecha esquina"><path d="M15.19,13.06V15.8s3.53-2.29,3.81-5.66C19,10.14,17.49,12.64,15.19,13.06Z" class="cls-3"/><path d="M15.19,16l-.11,0a.21.21,0,0,1-.12-.2V13.06a.24.24,0,0,1,.19-.23C17.31,12.44,18.79,10,18.8,10a.21.21,0,0,1,.27-.1.25.25,0,0,1,.16.24C19,13.62,15.47,15.9,15.32,16A.3.3,0,0,1,15.19,16Zm.22-2.77v2.11a8.85,8.85,0,0,0,3.19-4.31,6.26,6.26,0,0,1-3.19,2.2Z"/></g><g id="_360" data-name="360"><path d="M7.35,9.23a.9.9,0,0,1,.23.65,1.1,1.1,0,0,1-.14.53A1.06,1.06,0,0,1,7,10.8a1.83,1.83,0,0,1-.73.14,2.75,2.75,0,0,1-.7-.1A2.5,2.5,0,0,1,5,10.53l.26-.48a1.36,1.36,0,0,0,.44.24,2,2,0,0,0,.55.09.85.85,0,0,0,.51-.13A.43.43,0,0,0,7,9.88a.45.45,0,0,0-.19-.37.93.93,0,0,0-.54-.14H5.94V9L6.69,8H5.17V7.53H7.45v.41l-.81,1A1.06,1.06,0,0,1,7.35,9.23Z"/><path d="M10.11,8.93a1,1,0,0,1,.56.91,1.14,1.14,0,0,1-.16.57,1.38,1.38,0,0,1-.44.39,1.5,1.5,0,0,1-.62.13,1.38,1.38,0,0,1-1.08-.43A1.83,1.83,0,0,1,8,9.27a2.28,2.28,0,0,1,.2-1,1.53,1.53,0,0,1,.57-.61,1.76,1.76,0,0,1,.87-.22,2.05,2.05,0,0,1,.49.06,1.05,1.05,0,0,1,.4.16l-.23.46A1.07,1.07,0,0,0,9.64,8a1,1,0,0,0-.75.29,1.2,1.2,0,0,0-.28.87h0A.83.83,0,0,1,9,8.88a1.54,1.54,0,0,1,.52-.09A1.56,1.56,0,0,1,10.11,8.93ZM9.9,10.28a.55.55,0,0,0,.18-.41.49.49,0,0,0-.18-.42.87.87,0,0,0-.49-.16.81.81,0,0,0-.5.16.56.56,0,0,0-.18.42.48.48,0,0,0,.18.39.71.71,0,0,0,.51.16A.71.71,0,0,0,9.9,10.28Z"/><path d="M11.68,10.72a1.2,1.2,0,0,1-.49-.6A2.12,2.12,0,0,1,11,9.19a2,2,0,0,1,.19-.93,1.43,1.43,0,0,1,.49-.6,1.28,1.28,0,0,1,.72-.2,1.36,1.36,0,0,1,.71.2,1.3,1.3,0,0,1,.51.6,2.27,2.27,0,0,1,.18.93,2,2,0,0,1-.18.93,1.41,1.41,0,0,1-.51.6,1.19,1.19,0,0,1-.71.19A1.2,1.2,0,0,1,11.68,10.72ZM13,10.08a1.62,1.62,0,0,0,.21-.89A1.54,1.54,0,0,0,13,8.3a.7.7,0,0,0-1.13,0,1.53,1.53,0,0,0-.22.89,1.46,1.46,0,0,0,.22.89.6.6,0,0,0,.56.29A.66.66,0,0,0,13,10.08Z"/><path d="M14.61,9a.81.81,0,0,1-.29-.29.85.85,0,0,1,0-.8,1,1,0,0,1,.29-.29.91.91,0,0,1,.83,0,.89.89,0,0,1,.29.29.83.83,0,0,1,.11.4.77.77,0,0,1-.11.4.74.74,0,0,1-.29.29.84.84,0,0,1-.41.11A.72.72,0,0,1,14.61,9Zm.76-.34a.45.45,0,0,0,.14-.35.44.44,0,0,0-.14-.34A.4.4,0,0,0,15,7.81a.52.52,0,0,0-.35.13.43.43,0,0,0-.13.34.52.52,0,0,0,.13.35.41.41,0,0,0,.35.13.4.4,0,0,0,.34-.13Z"/></g></svg>