<svg xmlns="http://www.w3.org/2000/svg"
	xmlns:xlink="http://www.w3.org/1999/xlink" id="Capa_1" data-name="Capa 1" viewBox="0 0 18.71 17.84">
	<defs>
		<style>
			.cls-1 {
				fill: url(#Degradado_sin_nombre_2);
			}

			.cls-2 {
				fill: url(#Degradado_sin_nombre_2-2);
			}
		</style>
		<linearGradient id="Degradado_sin_nombre_2" x1="-816.84" y1="-439.71" x2="-816.78" y2="-439.57" gradientTransform="translate(87479.87 22903.63) scale(107.09 52.08)" gradientUnits="userSpaceOnUse">
			<stop offset="0" stop-color="#1b3a95" />
			<stop offset="0.49" stop-color="#1b89b8" />
			<stop offset="1" stop-color="#30a671" />
		</linearGradient>
		<linearGradient id="Degradado_sin_nombre_2-2" x1="-852.79" y1="-424.42" x2="-852.71" y2="-424.33" gradientTransform="translate(11924.65 5931.13) scale(13.97)" xlink:href="#Degradado_sin_nombre_2" />
	</defs>
	<title>v360 icon</title>
	<g id="montañas">
		<path class="cls-1" d="M11.44,7.68,8,3.45,3.28,9.51H15.76L11.81,4.32,10.12,6.05" />
		<path d="M15.75,9.7H3.28a.16.16,0,0,1-.16-.1.17.17,0,0,1,0-.19l4.7-6.07A.15.15,0,0,1,8,3.27a.16.16,0,0,1,.14.07l2,2.46,1.56-1.61a.22.22,0,0,1,.14-.06A.14.14,0,0,1,12,4.2l3.94,5.21a.19.19,0,0,1,0,.19A.22.22,0,0,1,15.75,9.7ZM3.64,9.34H15.39L11.8,4.58l-1.44,1.5,1.22,1.5a.2.2,0,0,1,0,.26.21.21,0,0,1-.26,0L8,3.73Z" />
	</g>
	<g id="circulo">
		<circle class="cls-2" cx="13.43" cy="3.43" r="0.83" />
		<path d="M13.43,4.45a1,1,0,1,1,1-1A1,1,0,0,1,13.43,4.45Zm0-1.66a.64.64,0,1,0,.64.64.63.63,0,0,0-.64-.64Z" />
	</g>
	<g id="_360" data-name="360">
		<path d="M7.66,14.23a.58.58,0,0,1,.16.43.79.79,0,0,1-.09.38.73.73,0,0,1-.33.27,1.07,1.07,0,0,1-.53.1,2,2,0,0,1-.49-.06,1.23,1.23,0,0,1-.4-.19l.21-.41a.89.89,0,0,0,.31.15,1.1,1.1,0,0,0,.35,0,.59.59,0,0,0,.31-.07.25.25,0,0,0,.12-.23c0-.19-.15-.29-.44-.29H6.59V14l.48-.54h-1v-.42H7.7v.35L7.18,14A.83.83,0,0,1,7.66,14.23Z" />
		<path d="M9.58,14a.86.86,0,0,1,.29.25.61.61,0,0,1,.1.37.81.81,0,0,1-.11.41.84.84,0,0,1-.32.27.92.92,0,0,1-.44.1.9.9,0,0,1-.76-.3,1.15,1.15,0,0,1-.28-.84,1.47,1.47,0,0,1,.15-.68,1.1,1.1,0,0,1,.41-.42A1.31,1.31,0,0,1,9.23,13a1.29,1.29,0,0,1,.35,0,1,1,0,0,1,.29.11l-.2.4a.82.82,0,0,0-.44-.11.62.62,0,0,0-.46.17.76.76,0,0,0-.19.5.77.77,0,0,1,.58-.2A.72.72,0,0,1,9.58,14Zm-.24.91a.32.32,0,0,0,.12-.25.3.3,0,0,0-.12-.25.4.4,0,0,0-.28-.1.4.4,0,0,0-.29.1.32.32,0,0,0,0,.47l0,0a.53.53,0,0,0,.3.09.42.42,0,0,0,.27-.09Z" />
		<path d="M10.65,15.27a.94.94,0,0,1-.35-.41,1.67,1.67,0,0,1,0-1.28,1,1,0,0,1,.35-.41.94.94,0,0,1,1.37.41,1.58,1.58,0,0,1,0,1.28.94.94,0,0,1-1.37.41Zm.84-.48a1.37,1.37,0,0,0,0-1.12.39.39,0,0,0-.54-.13.37.37,0,0,0-.12.13,1.29,1.29,0,0,0,0,1.12.39.39,0,0,0,.53.12A.38.38,0,0,0,11.49,14.79Z" />
		<path d="M12.68,14.09a.56.56,0,0,1-.22-.76h0A.59.59,0,0,1,13,13a.56.56,0,0,1,.5.29.58.58,0,0,1,0,.57.5.5,0,0,1-.21.2.6.6,0,0,1-.29.08A.63.63,0,0,1,12.68,14.09Zm.51-.26a.33.33,0,0,0,0-.45.3.3,0,0,0-.43,0,.35.35,0,0,0,0,.45A.32.32,0,0,0,13.19,13.83Z" />
	</g>
	<rect x="18.31" y="3.47" width="0.4" height="10.97" />
	<path d="M9.35,6.87C4.11,6.87,0,5.36,0,3.43S4.11,0,9.35,0s9.36,1.51,9.36,3.43S14.6,6.87,9.35,6.87ZM9.35.4C4.5.4.4,1.79.4,3.43s4.1,3,9,3,9-1.39,9-3S14.21.4,9.35.4Z" />
	<path d="M9.35,17.84C4.11,17.84,0,16.33,0,14.4S4.11,11,9.35,11s9.36,1.51,9.36,3.43S14.6,17.84,9.35,17.84Zm0-6.47C4.5,11.37.4,12.76.4,14.4s4.1,3,9,3,9-1.39,9-3S14.21,11.37,9.35,11.37Z" />
	<rect x="4.14" y="6.14" width="0.4" height="10.94" />
	<rect x="14.12" y="6.14" width="0.4" height="10.94" />
	<rect x="0.01" y="3.52" width="0.4" height="10.97" />
</svg>